<?xml version="1.0" standalone="no"?><!DOCTYPE svg PUBLIC "-//W3C//DTD SVG 1.1//EN" "http://www.w3.org/Graphics/SVG/1.1/DTD/svg11.dtd"><svg t="1590031502292" class="icon" viewBox="0 0 1024 1024" version="1.1" xmlns="http://www.w3.org/2000/svg" p-id="5494" width="48" height="48" xmlns:xlink="http://www.w3.org/1999/xlink"><defs><style type="text/css"></style></defs><path d="M749.714286 402.285714c0-133.485714-109.714286-243.2-243.2-243.2S261.485714 266.971429 261.485714 402.285714c0 69.485714 29.257143 135.314286 80.457143 181.028572 7.314286 7.314286 18.285714 5.485714 25.6-1.828572 7.314286-7.314286 5.485714-18.285714-1.828571-25.6-43.885714-38.4-69.485714-95.085714-69.485715-153.6 0-113.371429 93.257143-206.628571 206.628572-206.628571C619.885714 195.657143 713.142857 287.085714 713.142857 402.285714c0 113.371429-93.257143 206.628571-206.628571 206.628572-135.314286 0-259.657143 78.628571-318.171429 201.142857-3.657143 9.142857 0 20.114286 9.142857 23.771428 1.828571 1.828571 5.485714 1.828571 7.314286 1.828572 7.314286 0 12.8-3.657143 16.457143-10.971429 51.2-109.714286 162.742857-181.028571 285.257143-181.028571C640 645.485714 749.714286 535.771429 749.714286 402.285714zM822.857143 821.028571c-3.657143-9.142857-14.628571-12.8-23.771429-9.142857-5.485714 3.657143-9.142857 9.142857-10.971428 14.628572 0 3.657143 0 7.314286 1.828571 9.142857 3.657143 7.314286 9.142857 10.971429 16.457143 10.971428 1.828571 0 5.485714 0 7.314286-1.828571 5.485714-3.657143 10.971429-9.142857 10.971428-14.628571 0-3.657143 0-7.314286-1.828571-9.142858zM797.257143 764.342857c-29.257143-43.885714-69.485714-82.285714-115.2-107.885714-9.142857-5.485714-20.114286-1.828571-25.6 7.314286-5.485714 9.142857-1.828571 20.114286 7.314286 25.6 42.057143 23.771429 76.8 56.685714 104.228571 96.914285 3.657143 5.485714 9.142857 7.314286 14.628571 7.314286 3.657143 0 7.314286-1.828571 10.971429-3.657143 5.485714-5.485714 9.142857-16.457143 3.657143-25.6z" fill="#d81e06" p-id="5495"></path><path d="M641.828571 440.685714c3.657143-9.142857-3.657143-20.114286-12.8-21.942857-9.142857-3.657143-20.114286 3.657143-21.942857 12.8-12.8 43.885714-54.857143 74.971429-100.571428 74.971429s-87.771429-31.085714-100.571429-74.971429c-3.657143-9.142857-12.8-14.628571-21.942857-12.8-9.142857 3.657143-14.628571 12.8-12.8 21.942857 18.285714 60.342857 73.142857 102.4 135.314286 102.4 60.342857 0 117.028571-42.057143 135.314285-102.4z" fill="#d81e06" p-id="5496"></path></svg>