<?xml version="1.0" standalone="no"?><!DOCTYPE svg PUBLIC "-//W3C//DTD SVG 1.1//EN" "http://www.w3.org/Graphics/SVG/1.1/DTD/svg11.dtd"><svg t="1590031354243" class="icon" viewBox="0 0 1024 1024" version="1.1" xmlns="http://www.w3.org/2000/svg" p-id="3556" width="48" height="48" xmlns:xlink="http://www.w3.org/1999/xlink"><defs><style type="text/css"></style></defs><path d="M383.1 605.8H159.7c-32.6 0-59.2 26.6-59.2 59.2v223.4c0 32.6 26.6 59.2 59.2 59.2h223.4c32.6 0 59.2-26.6 59.2-59.2V665c-0.1-32.6-26.6-59.2-59.2-59.2z m19.1 282.6c0 10.6-8.6 19.2-19.2 19.2H159.7c-10.6 0-19.2-8.6-19.2-19.2V665c0-10.6 8.6-19.2 19.2-19.2h223.4c10.6 0 19.2 8.6 19.2 19.2v223.4zM383.1 174.8H159.7c-32.6 0-59.2 26.6-59.2 59.2v223.4c0 32.6 26.6 59.2 59.2 59.2h223.4c32.6 0 59.2-26.6 59.2-59.2V234c-0.1-32.7-26.6-59.2-59.2-59.2z m19.1 282.5c0 10.6-8.6 19.2-19.2 19.2H159.7c-10.6 0-19.2-8.6-19.2-19.2V234c0-10.6 8.6-19.2 19.2-19.2h223.4c10.6 0 19.2 8.6 19.2 19.2v223.3zM833.6 605.8H610.3c-32.6 0-59.2 26.6-59.2 59.2v223.4c0 32.6 26.6 59.2 59.2 59.2h223.4c32.6 0 59.2-26.6 59.2-59.2V665c-0.1-32.6-26.6-59.2-59.3-59.2z m19.2 282.6c0 10.6-8.6 19.2-19.2 19.2H610.3c-10.6 0-19.2-8.6-19.2-19.2V665c0-10.6 8.6-19.2 19.2-19.2h223.4c10.6 0 19.2 8.6 19.2 19.2v223.4zM905.9 297.6L759.3 151c-23.9-23.9-62.9-23.9-86.9 0L525.9 297.5c-11.6 11.6-18 27.1-18 43.5s6.4 31.8 18 43.5L672.6 531c12 12 27.7 18 43.4 18s31.5-6 43.4-18l146.5-146.5c11.6-11.6 18-27 18-43.4s-6.4-31.9-18-43.5z m-28.3 58.6L731.1 502.7c-8.4 8.4-21.9 8.4-30.3 0L554.2 356.2c-4.1-4.1-6.3-9.5-6.3-15.2s2.2-11.1 6.3-15.2l146.5-146.5c4.2-4.2 9.7-6.3 15.2-6.3s11 2.1 15.2 6.3l146.6 146.6c4 4 6.3 9.4 6.3 15.2-0.1 5.6-2.3 11-6.4 15.1z" fill="#707070" p-id="3557"></path></svg>